<?xml version="1.0" encoding="utf-8"?>
<!-- Generator: Adobe Illustrator 28.4.1, SVG Export Plug-In . SVG Version: 6.00 Build 0)  -->
<svg version="1.1" id="Layer_1" xmlns="http://www.w3.org/2000/svg" xmlns:xlink="http://www.w3.org/1999/xlink" x="0px" y="0px"
	 viewBox="0 0 157.73247 51.16359" style="enable-background:new 0 0 157.73247 51.16359;" xml:space="preserve">
<g>
	<rect style="fill:#006853;" width="88.06805" height="36.20824"/>
	<g>
		<rect x="11.35094" y="8.50533" style="fill:#FFFFFF;" width="5.01689" height="20.06755"/>
		<polygon style="fill:#FFFFFF;" points="36.79872,8.50533 18.15658,8.50533 18.15658,12.80951 24.96222,12.80951 
			24.96222,28.57288 29.9791,28.57288 29.9791,12.80951 36.79872,12.80951 		"/>
		<g>
			<path style="fill:#FFFFFF;" d="M75.1311,8.50533h-18.6142c-0.9922,0-1.80272,0.81053-1.80272,1.80273v18.26483h5.01688V13.49427
				c0-0.37731,0.30745-0.69873,0.69873-0.69873h2.89275v15.76337h5.01689V12.79554h2.89275
				c0.37731,0,0.69873,0.30744,0.69873,0.69873v15.07861h5.01688v-18.2788C76.93382,9.30188,76.1233,8.50533,75.1311,8.50533"/>
			<path style="fill:#FFFFFF;" d="M50.75936,8.50533H38.58747v4.29021h8.259c0.37732,0,0.69873,0.30744,0.69873,0.69873v2.18004
				H37.09219c-1.74683,0-3.17224,1.41144-3.17224,3.17224v6.56807c0,1.74683,1.41144,3.17224,3.17224,3.17224h1.0481h12.60511
				c0.9922,0,1.80272-0.81053,1.80272-1.80273V15.68828v-5.38023C52.56209,9.31586,51.75156,8.50533,50.75936,8.50533
				 M46.38531,24.28267h-6.02306c-0.78258,0-1.41144-0.62886-1.41144-1.41144v-1.48131c0-0.78258,0.62886-1.41144,1.41144-1.41144
				h7.18295v3.15827C47.5452,23.76561,47.01417,24.28267,46.38531,24.28267"/>
		</g>
	</g>
</g>
<g>
	<path style="fill:#666667;" d="M1.93023,43.06935v5.90332H1.16802v-5.90332H1.93023z"/>
	<path style="fill:#666667;" d="M3.32329,45.88087c0-0.43799-0.0083-0.79688-0.03467-1.14746h0.68311l0.04346,0.70068h0.01758
		c0.21045-0.40283,0.70068-0.79688,1.40137-0.79688c0.58691,0,1.49805,0.3501,1.49805,1.8042v2.53125h-0.771v-2.44385
		c0-0.68311-0.25391-1.25244-0.98096-1.25244c-0.50781,0-0.90186,0.35938-1.0332,0.78857
		c-0.03516,0.09619-0.05273,0.22754-0.05273,0.35889v2.54883h-0.771V45.88087z"/>
	<path style="fill:#666667;" d="M8.08159,48.18459c0.22803,0.14893,0.63086,0.30615,1.01611,0.30615
		c0.56055,0,0.82324-0.28027,0.82324-0.63037c0-0.36768-0.21875-0.56934-0.78809-0.7793
		c-0.76221-0.27197-1.12109-0.69238-1.12109-1.2002c0-0.68311,0.55176-1.24365,1.4624-1.24365
		c0.4292,0,0.80566,0.12256,1.04248,0.2627l-0.19287,0.56055c-0.1665-0.10498-0.47266-0.24512-0.86719-0.24512
		c-0.45508,0-0.70947,0.2627-0.70947,0.57812c0,0.3501,0.25439,0.50781,0.80615,0.71826
		c0.73535,0.28027,1.1123,0.64795,1.1123,1.27832c0,0.74463-0.57812,1.27002-1.58545,1.27002
		c-0.46436,0-0.89355-0.11377-1.19092-0.28906L8.08159,48.18459z"/>
	<path style="fill:#666667;" d="M12.5855,43.51613v1.21729h1.10352v0.58691H12.5855v2.28613
		c0,0.52539,0.14893,0.82324,0.57812,0.82324c0.20117,0,0.3501-0.02637,0.44629-0.05273l0.03516,0.57812
		c-0.14893,0.06152-0.38525,0.10498-0.68311,0.10498c-0.35889,0-0.64795-0.11377-0.83203-0.32373
		c-0.21875-0.22803-0.29785-0.60449-0.29785-1.10352v-2.3125h-0.65674v-0.58691h0.65674v-1.01562L12.5855,43.51613z"/>
	<path style="fill:#666667;" d="M15.41558,43.5425c0.00879,0.2627-0.18359,0.47266-0.49023,0.47266
		c-0.27148,0-0.46436-0.20996-0.46436-0.47266c0-0.27148,0.20166-0.48193,0.48193-0.48193
		C15.23198,43.06056,15.41558,43.27101,15.41558,43.5425z M14.55718,48.97267v-4.23926h0.771v4.23926H14.55718z"/>
	<path style="fill:#666667;" d="M17.53618,43.51613v1.21729h1.10352v0.58691h-1.10352v2.28613
		c0,0.52539,0.14893,0.82324,0.57812,0.82324c0.20117,0,0.3501-0.02637,0.44678-0.05273l0.03467,0.57812
		c-0.14893,0.06152-0.38525,0.10498-0.68311,0.10498c-0.35889,0-0.64795-0.11377-0.83203-0.32373
		c-0.21875-0.22803-0.29785-0.60449-0.29785-1.10352v-2.3125h-0.65674v-0.58691h0.65674v-1.01562L17.53618,43.51613z"/>
	<path style="fill:#666667;" d="M23.05523,47.81642c0,0.43799,0.00879,0.82324,0.03516,1.15625h-0.68311l-0.04395-0.69189h-0.01758
		c-0.20117,0.34131-0.64795,0.78809-1.40137,0.78809c-0.66553,0-1.4624-0.36768-1.4624-1.85645v-2.479h0.77051v2.34766
		c0,0.80566,0.24512,1.34863,0.9458,1.34863c0.51709,0,0.87598-0.35938,1.01611-0.70068
		c0.04395-0.11377,0.07031-0.25391,0.07031-0.39404v-2.60156h0.77051V47.81642z"/>
	<path style="fill:#666667;" d="M25.2647,43.51613v1.21729h1.10352v0.58691H25.2647v2.28613
		c0,0.52539,0.14893,0.82324,0.57812,0.82324c0.20117,0,0.3501-0.02637,0.44678-0.05273l0.03467,0.57812
		c-0.14893,0.06152-0.38525,0.10498-0.68311,0.10498c-0.35889,0-0.64795-0.11377-0.83203-0.32373
		c-0.21875-0.22803-0.29785-0.60449-0.29785-1.10352v-2.3125h-0.65674v-0.58691h0.65674v-1.01562L25.2647,43.51613z"/>
	<path style="fill:#666667;" d="M31.02056,46.81789c0,1.56787-1.08594,2.25098-2.11084,2.25098
		c-1.14746,0-2.03174-0.84082-2.03174-2.18066c0-1.41895,0.92822-2.25098,2.10205-2.25098
		C30.19732,44.63722,31.02056,45.52199,31.02056,46.81789z M27.65728,46.86183c0,0.92822,0.53418,1.62891,1.2876,1.62891
		c0.73584,0,1.2876-0.69189,1.2876-1.64648c0-0.71826-0.35938-1.62891-1.27002-1.62891
		C28.05132,45.21535,27.65728,46.05617,27.65728,46.86183z"/>
	<path style="fill:#666667;" d="M34.64019,43.71779h-1.79541v-0.64844h4.37061v0.64844h-1.8042v5.25488h-0.771V43.71779z"/>
	<path style="fill:#666667;" d="M37.65483,46.99318c0.01758,1.04248,0.68359,1.47168,1.4541,1.47168
		c0.55176,0,0.88477-0.09668,1.17383-0.21924l0.13135,0.55176c-0.27148,0.12256-0.73584,0.2627-1.41016,0.2627
		c-1.30518,0-2.08447-0.85791-2.08447-2.13672s0.75293-2.28613,1.98779-2.28613c1.38428,0,1.75195,1.21729,1.75195,1.99707
		c0,0.15771-0.01758,0.28027-0.02637,0.35889H37.65483z M39.9146,46.44142c0.00879-0.49023-0.20117-1.25244-1.06836-1.25244
		c-0.77979,0-1.12109,0.71826-1.18262,1.25244H39.9146z"/>
	<path style="fill:#666667;" d="M44.63774,48.81496c-0.20166,0.10498-0.64795,0.24512-1.21729,0.24512
		c-1.27881,0-2.11084-0.8667-2.11084-2.16309c0-1.30518,0.89307-2.25098,2.27686-2.25098c0.45557,0,0.8584,0.11377,1.06885,0.21875
		l-0.17529,0.5957c-0.18408-0.10498-0.47314-0.20166-0.89355-0.20166c-0.97217,0-1.49756,0.71826-1.49756,1.60303
		c0,0.98096,0.63086,1.58545,1.47168,1.58545c0.4375,0,0.72656-0.11377,0.9458-0.21045L44.63774,48.81496z"/>
	<path style="fill:#666667;" d="M45.54155,45.88087c0-0.43799-0.00879-0.79688-0.03467-1.14746h0.68311l0.04395,0.70068h0.01709
		c0.21045-0.40283,0.70068-0.79688,1.40137-0.79688c0.58691,0,1.49805,0.3501,1.49805,1.8042v2.53125h-0.771v-2.44385
		c0-0.68311-0.25391-1.25244-0.98096-1.25244c-0.50781,0-0.90186,0.35938-1.0332,0.78857
		c-0.03516,0.09619-0.05273,0.22754-0.05273,0.35889v2.54883h-0.771V45.88087z"/>
	<path style="fill:#666667;" d="M54.24126,46.81789c0,1.56787-1.08594,2.25098-2.11084,2.25098
		c-1.14746,0-2.03174-0.84082-2.03174-2.18066c0-1.41895,0.92822-2.25098,2.10205-2.25098
		C53.41802,44.63722,54.24126,45.52199,54.24126,46.81789z M50.87798,46.86183c0,0.92822,0.53418,1.62891,1.2876,1.62891
		c0.73584,0,1.2876-0.69189,1.2876-1.64648c0-0.71826-0.35938-1.62891-1.27002-1.62891
		C51.27202,45.21535,50.87798,46.05617,50.87798,46.86183z"/>
	<path style="fill:#666667;" d="M55.21538,42.75392h0.771v6.21875h-0.771V42.75392z"/>
	<path style="fill:#666667;" d="M61.11968,46.81789c0,1.56787-1.08594,2.25098-2.11084,2.25098
		c-1.14746,0-2.03174-0.84082-2.03174-2.18066c0-1.41895,0.92822-2.25098,2.10205-2.25098
		C60.29644,44.63722,61.11968,45.52199,61.11968,46.81789z M57.7564,46.86183c0,0.92822,0.53418,1.62891,1.2876,1.62891
		c0.73584,0,1.2876-0.69189,1.2876-1.64648c0-0.71826-0.35938-1.62891-1.27002-1.62891
		C58.15044,45.21535,57.7564,46.05617,57.7564,46.86183z M60.20024,42.90285l-1.06885,1.25244h-0.55176l0.771-1.25244H60.20024z"/>
	<path style="fill:#666667;" d="M65.74614,44.73341c-0.01709,0.30664-0.03467,0.64844-0.03467,1.16504v2.46094
		c0,0.97217-0.19287,1.56787-0.60449,1.93604c-0.41162,0.38525-1.00732,0.50781-1.5415,0.50781
		c-0.50781,0-1.06836-0.12256-1.41016-0.35059l0.19287-0.58643c0.28027,0.1748,0.71777,0.33252,1.24365,0.33252
		c0.78808,0,1.36621-0.41162,1.36621-1.47998v-0.47314h-0.01758c-0.23633,0.39404-0.69189,0.70947-1.34863,0.70947
		c-1.05127,0-1.8042-0.89355-1.8042-2.06689c0-1.43652,0.93701-2.25098,1.90918-2.25098c0.73584,0,1.13867,0.38525,1.32275,0.73584
		h0.01709l0.03516-0.63965H65.74614z M64.94926,46.40627c0-0.13135-0.00879-0.24512-0.04395-0.3501
		c-0.14014-0.44678-0.5166-0.81445-1.07714-0.81445c-0.73584,0-1.26123,0.62158-1.26123,1.60254
		c0,0.83203,0.42041,1.52393,1.25244,1.52393c0.47314,0,0.90234-0.29785,1.06884-0.78809
		c0.04346-0.13135,0.06104-0.28027,0.06104-0.41162V46.40627z"/>
	<path style="fill:#666667;" d="M67.7979,43.5425c0.00879,0.2627-0.18359,0.47266-0.49023,0.47266
		c-0.27148,0-0.46436-0.20996-0.46436-0.47266c0-0.27148,0.20166-0.48193,0.48193-0.48193
		C67.6143,43.06056,67.7979,43.27101,67.7979,43.5425z M66.9395,48.97267v-4.23926h0.771v4.23926H66.9395z"/>
	<path style="fill:#666667;" d="M72.01176,48.81496c-0.20166,0.10498-0.64795,0.24512-1.21729,0.24512
		c-1.27881,0-2.11084-0.8667-2.11084-2.16309c0-1.30518,0.89307-2.25098,2.27686-2.25098c0.45557,0,0.8584,0.11377,1.06885,0.21875
		l-0.17529,0.5957c-0.18408-0.10498-0.47314-0.20166-0.89355-0.20166c-0.97217,0-1.49756,0.71826-1.49756,1.60303
		c0,0.98096,0.63086,1.58545,1.47168,1.58545c0.4375,0,0.72656-0.11377,0.9458-0.21045L72.01176,48.81496z"/>
	<path style="fill:#666667;" d="M76.69975,46.81789c0,1.56787-1.08594,2.25098-2.11084,2.25098
		c-1.14746,0-2.03174-0.84082-2.03174-2.18066c0-1.41895,0.92822-2.25098,2.10205-2.25098
		C75.87651,44.63722,76.69975,45.52199,76.69975,46.81789z M73.33647,46.86183c0,0.92822,0.53418,1.62891,1.2876,1.62891
		c0.73584,0,1.2876-0.69189,1.2876-1.64648c0-0.71826-0.35938-1.62891-1.27002-1.62891
		C73.73051,45.21535,73.33647,46.05617,73.33647,46.86183z"/>
	<path style="fill:#666667;" d="M80.51225,47.11574l-0.61279,1.85693h-0.78857l2.00586-5.90332h0.91992l2.01416,5.90332h-0.81445
		L82.606,47.11574H80.51225z M82.44829,46.52052l-0.57812-1.69922c-0.13135-0.38574-0.21924-0.73584-0.30664-1.07764h-0.01758
		c-0.0874,0.35059-0.18408,0.70947-0.29785,1.06885l-0.57812,1.70801H82.44829z"/>
	<path style="fill:#666667;" d="M88.33647,47.81642c0,0.43799,0.00879,0.82324,0.03516,1.15625h-0.68311l-0.04395-0.69189H87.627
		c-0.20117,0.34131-0.64795,0.78809-1.40137,0.78809c-0.66553,0-1.4624-0.36768-1.4624-1.85645v-2.479h0.77051v2.34766
		c0,0.80566,0.24512,1.34863,0.9458,1.34863c0.51709,0,0.87598-0.35938,1.01611-0.70068
		c0.04395-0.11377,0.07031-0.25391,0.07031-0.39404v-2.60156h0.77051V47.81642z"/>
	<path style="fill:#666667;" d="M90.54594,43.51613v1.21729h1.10352v0.58691h-1.10352v2.28613
		c0,0.52539,0.14893,0.82324,0.57812,0.82324c0.20117,0,0.3501-0.02637,0.44678-0.05273l0.03467,0.57812
		c-0.14893,0.06152-0.38525,0.10498-0.68311,0.10498c-0.35889,0-0.64795-0.11377-0.83203-0.32373
		c-0.21875-0.22803-0.29785-0.60449-0.29785-1.10352v-2.3125h-0.65674v-0.58691h0.65674v-1.01562L90.54594,43.51613z"/>
	<path style="fill:#666667;" d="M96.30132,46.81789c0,1.56787-1.08594,2.25098-2.11084,2.25098
		c-1.14746,0-2.03174-0.84082-2.03174-2.18066c0-1.41895,0.92822-2.25098,2.10205-2.25098
		C95.47807,44.63722,96.30132,45.52199,96.30132,46.81789z M92.93803,46.86183c0,0.92822,0.53418,1.62891,1.2876,1.62891
		c0.73584,0,1.2876-0.69189,1.2876-1.64648c0-0.71826-0.35938-1.62891-1.27002-1.62891
		C93.33208,45.21535,92.93803,46.05617,92.93803,46.86183z M95.38188,42.90285l-1.06885,1.25244h-0.55176l0.771-1.25244H95.38188z"
		/>
	<path style="fill:#666667;" d="M97.27544,45.88087c0-0.43799-0.0083-0.79688-0.03467-1.14746h0.68311l0.04346,0.70068h0.01758
		c0.21045-0.40283,0.70068-0.79688,1.40137-0.79688c0.58691,0,1.49805,0.3501,1.49805,1.8042v2.53125h-0.771v-2.44385
		c0-0.68311-0.25391-1.25244-0.98096-1.25244c-0.50781,0-0.90186,0.35938-1.0332,0.78857
		c-0.03516,0.09619-0.05273,0.22754-0.05273,0.35889v2.54883h-0.771V45.88087z"/>
	<path style="fill:#666667;" d="M105.97514,46.81789c0,1.56787-1.08594,2.25098-2.11084,2.25098
		c-1.14746,0-2.03174-0.84082-2.03174-2.18066c0-1.41895,0.92822-2.25098,2.10205-2.25098
		C105.1519,44.63722,105.97514,45.52199,105.97514,46.81789z M102.61186,46.86183c0,0.92822,0.53418,1.62891,1.2876,1.62891
		c0.73584,0,1.2876-0.69189,1.2876-1.64648c0-0.71826-0.35938-1.62891-1.27002-1.62891
		C103.00591,45.21535,102.61186,46.05617,102.61186,46.86183z"/>
	<path style="fill:#666667;" d="M106.94926,45.88087c0-0.43799-0.0083-0.79688-0.03467-1.14746h0.67432l0.03516,0.68311h0.02588
		c0.23682-0.40283,0.63086-0.7793,1.33154-0.7793c0.57812,0,1.01611,0.3501,1.19971,0.84961h0.01758
		c0.13135-0.23633,0.29785-0.42041,0.47314-0.55176c0.25391-0.19287,0.53418-0.29785,0.93701-0.29785
		c0.56055,0,1.39258,0.36768,1.39258,1.83936v2.49609h-0.75293v-2.3999c0-0.81445-0.29785-1.30518-0.91992-1.30518
		c-0.43799,0-0.7793,0.32422-0.91064,0.70068c-0.03516,0.10547-0.06152,0.24561-0.06152,0.38574v2.61865h-0.75342v-2.54004
		c0-0.67432-0.29736-1.16504-0.88428-1.16504c-0.48193,0-0.83203,0.38574-0.95459,0.771
		c-0.04395,0.11377-0.06152,0.24512-0.06152,0.37646v2.55762h-0.75342V45.88087z"/>
	<path style="fill:#666667;" d="M118.0938,46.81789c0,1.56787-1.08594,2.25098-2.11084,2.25098
		c-1.14746,0-2.03174-0.84082-2.03174-2.18066c0-1.41895,0.92822-2.25098,2.10205-2.25098
		C117.27055,44.63722,118.0938,45.52199,118.0938,46.81789z M114.73051,46.86183c0,0.92822,0.53418,1.62891,1.2876,1.62891
		c0.73584,0,1.2876-0.69189,1.2876-1.64648c0-0.71826-0.35938-1.62891-1.27002-1.62891
		C115.12456,45.21535,114.73051,46.05617,114.73051,46.86183z"/>
	<path style="fill:#666667;" d="M124.58647,42.75392v5.12402c0,0.37646,0.00879,0.80566,0.03516,1.09473h-0.69189l-0.03516-0.73584
		H123.877c-0.23633,0.47314-0.75293,0.83203-1.44482,0.83203c-1.0249,0-1.81299-0.8667-1.81299-2.1543
		c-0.00879-1.41016,0.8667-2.27734,1.90039-2.27734c0.64795,0,1.08594,0.30664,1.27881,0.64795h0.01758v-2.53125H124.58647z
		 M123.81596,46.459c0-0.09619-0.00879-0.22754-0.03516-0.32422c-0.11377-0.49023-0.53418-0.89307-1.1123-0.89307
		c-0.79688,0-1.27002,0.70068-1.27002,1.6377c0,0.8584,0.42041,1.56787,1.25244,1.56787c0.5166,0,0.98975-0.3418,1.12988-0.91992
		c0.02637-0.10498,0.03516-0.20996,0.03516-0.33252V46.459z"/>
	<path style="fill:#666667;" d="M126.29692,46.99318c0.01758,1.04248,0.68311,1.47168,1.4541,1.47168
		c0.55176,0,0.88477-0.09668,1.17383-0.21924l0.13135,0.55176c-0.27148,0.12256-0.73584,0.2627-1.41016,0.2627
		c-1.30518,0-2.08447-0.85791-2.08447-2.13672s0.75293-2.28613,1.98779-2.28613c1.38428,0,1.75195,1.21729,1.75195,1.99707
		c0,0.15771-0.01758,0.28027-0.02637,0.35889H126.29692z M128.55669,46.44142c0.00879-0.49023-0.20117-1.25244-1.06836-1.25244
		c-0.77979,0-1.12109,0.71826-1.18262,1.25244H128.55669z"/>
	<path style="fill:#666667;" d="M137.11674,46.3799c-0.04395-0.82324-0.09668-1.81299-0.08789-2.54834h-0.02588
		c-0.20166,0.69189-0.44678,1.42725-0.74463,2.24219l-1.04248,2.86377h-0.57812l-0.95459-2.81152
		c-0.28027-0.83203-0.5166-1.59375-0.68311-2.29443h-0.01758c-0.01758,0.73535-0.06104,1.7251-0.11377,2.60986l-0.15771,2.53125
		h-0.72705l0.41162-5.90332h0.97217l1.00732,2.85547c0.24561,0.72705,0.44678,1.375,0.5957,1.98828h0.02637
		c0.14893-0.5957,0.35889-1.24414,0.62158-1.98828l1.05127-2.85547h0.97217l0.36768,5.90332h-0.74414L137.11674,46.3799z"/>
	<path style="fill:#666667;" d="M139.64262,46.99318c0.01758,1.04248,0.68311,1.47168,1.4541,1.47168
		c0.55176,0,0.88477-0.09668,1.17383-0.21924l0.13135,0.55176c-0.27148,0.12256-0.73584,0.2627-1.41016,0.2627
		c-1.30518,0-2.08447-0.85791-2.08447-2.13672s0.75293-2.28613,1.98779-2.28613c1.38428,0,1.75195,1.21729,1.75195,1.99707
		c0,0.15771-0.01758,0.28027-0.02637,0.35889H139.64262z M141.90239,46.44142c0.00879-0.49023-0.20117-1.25244-1.06836-1.25244
		c-0.77979,0-1.12109,0.71826-1.18262,1.25244H141.90239z M142.08647,42.90285l-1.06836,1.25244h-0.55176l0.77051-1.25244H142.08647
		z"/>
	<path style="fill:#666667;" d="M143.93657,44.73341l0.60449,0.91113c0.15723,0.23633,0.28857,0.45508,0.4292,0.69189h0.02588
		c0.14014-0.25391,0.28027-0.47314,0.42041-0.70068l0.5957-0.90234h0.83203l-1.44531,2.0498l1.48926,2.18945h-0.87598
		l-0.62207-0.95459c-0.16602-0.24512-0.30615-0.48193-0.45508-0.73584h-0.01758c-0.14014,0.25391-0.28906,0.48193-0.44678,0.73584
		l-0.61328,0.95459h-0.84912l1.50635-2.16357l-1.43652-2.07568H143.93657z"/>
	<path style="fill:#666667;" d="M148.49272,43.5425c0.00879,0.2627-0.18359,0.47266-0.49023,0.47266
		c-0.27148,0-0.46436-0.20996-0.46436-0.47266c0-0.27148,0.20166-0.48193,0.48193-0.48193
		C148.30913,43.06056,148.49272,43.27101,148.49272,43.5425z M147.63432,48.97267v-4.23926h0.771v4.23926H147.63432z"/>
	<path style="fill:#666667;" d="M152.70659,48.81496c-0.20166,0.10498-0.64844,0.24512-1.21729,0.24512
		c-1.27881,0-2.11084-0.8667-2.11084-2.16309c0-1.30518,0.89307-2.25098,2.27686-2.25098c0.45557,0,0.8584,0.11377,1.06885,0.21875
		l-0.17529,0.5957c-0.18408-0.10498-0.47314-0.20166-0.89355-0.20166c-0.97217,0-1.49756,0.71826-1.49756,1.60303
		c0,0.98096,0.63086,1.58545,1.47168,1.58545c0.4375,0,0.72656-0.11377,0.9458-0.21045L152.70659,48.81496z"/>
	<path style="fill:#666667;" d="M157.39409,46.81789c0,1.56787-1.08594,2.25098-2.11084,2.25098
		c-1.14746,0-2.03174-0.84082-2.03174-2.18066c0-1.41895,0.92822-2.25098,2.10205-2.25098
		C156.57085,44.63722,157.39409,45.52199,157.39409,46.81789z M154.03081,46.86183c0,0.92822,0.53418,1.62891,1.2876,1.62891
		c0.73584,0,1.2876-0.69189,1.2876-1.64648c0-0.71826-0.35938-1.62891-1.27002-1.62891
		C154.42485,45.21535,154.03081,46.05617,154.03081,46.86183z"/>
</g>
</svg>
